<?xml version="1.0" encoding="utf-8"?>
<!-- Generator: Adobe Illustrator 24.3.0, SVG Export Plug-In . SVG Version: 6.00 Build 0)  -->
<svg version="1.1" id="Calque_1" xmlns="http://www.w3.org/2000/svg" xmlns:xlink="http://www.w3.org/1999/xlink" x="0px" y="0px"
	 viewBox="0 0 569.39 477.4" style="enable-background:new 0 0 569.39 477.4;" xml:space="preserve">
<style type="text/css">
	.st0{fill:#8EBDD0;}
</style>
<g id="Groupe_606" transform="translate(-8.428 391.917) rotate(-20)">
	<path id="Tracé_205" class="st0" d="M413.88-139.74l0-78.39c-0.32-23.34-19.16-42.18-42.5-42.5
		c-21.98,0.21-40.16,17.18-41.89,39.09l-0.11,1.27l-0.99,0.82c-55.6,45.93-108.23,63.84-187.69,63.84l-44.94,0
		c-23.78,0.03-43.05,19.3-43.09,43.09l0,80.74C52.72-8,71.99,11.27,95.77,11.3l18.9,0L137,129.13
		c1.94,10.58,11.17,18.26,21.92,18.24l50.38,0c6.59-0.21,12.8-3.14,17.15-8.09c4.14-5.07,5.87-11.69,4.74-18.13L211.53,18.29
		l4.51,1.01c41.58,9.18,80.2,28.6,112.37,56.49l0.99,0.82l0.1,1.28c1.46,22.04,19.8,39.16,41.89,39.08
		c23.34-0.32,42.18-19.16,42.5-42.5l0-78.41l2.47-0.46c37.24-8.79,60.31-46.1,51.53-83.34c-6.03-25.55-25.98-45.5-51.53-51.53
		L413.88-139.74z M212.37,127.84l-55.34,0.69L134.61,11.95l6.1,0c15.96,0.02,31.9,1.04,47.73,3.06l2.19,0.27L212.37,127.84z
		 M328.89,51.34l-4.84-3.52C270.66,8.67,215.64-8.04,140.09-8.04l-44.91,0c-12.9-0.18-23.22-10.78-23.07-23.68l0-80.78
		c0.17-12.67,10.4-22.91,23.07-23.07l44.92,0c74.95,0,129.98-16.71,183.98-55.88l4.81-3.52L328.89,51.34z M393.85,74.47
		c-0.01,12.4-10.06,22.45-22.47,22.47c-12.28-0.31-22.16-10.19-22.47-22.47l0-292.6c0.01-12.4,10.06-22.45,22.47-22.47
		c12.28,0.31,22.16,10.19,22.47,22.47L393.85,74.47z M450.3-71.84c0.12,20.8-12.83,39.45-32.37,46.6l-4.05,1.44l0-96l4.03,1.38
		C437.54-111.38,450.55-92.68,450.3-71.84L450.3-71.84z"/>
	<path id="Tracé_206" class="st0" d="M613.61-82.15l-86.85,0c-5.36,0-9.71,4.35-9.71,9.71s4.35,9.71,9.71,9.71l0,0l86.81,0
		c5.3-0.09,9.58-4.37,9.67-9.67C623-77.64,618.84-81.85,613.61-82.15z"/>
	<path id="Tracé_207" class="st0" d="M590.51,40.81L590.51,40.81L512.2,4.39c-1.31-0.59-2.73-0.89-4.17-0.88
		c-5.34-0.12-9.77,4.11-9.89,9.45c-0.09,3.91,2.19,7.49,5.76,9.07l78.26,36.38c1.34,0.51,2.75,0.82,4.19,0.93
		c3.71-0.03,7.08-2.14,8.74-5.45c1.3-2.08,1.62-4.63,0.88-6.97C595.1,44.2,593.12,41.97,590.51,40.81z"/>
	<path id="Tracé_208" class="st0" d="M507.98-147.1c1.55-0.13,3.06-0.48,4.5-1.06l78-36.29c4.87-2.36,6.91-8.23,4.54-13.1
		c-1.1-2.28-3.05-4.04-5.42-4.92c-1.04-0.37-2.13-0.56-3.23-0.56c-1.45,0-2.87,0.33-4.17,0.97l-78.39,36.46
		c-4.8,2.18-6.93,7.84-4.75,12.64c0.04,0.08,0.08,0.17,0.12,0.25C500.82-149.33,504.22-147.16,507.98-147.1z"/>
</g>
</svg>
