<?xml version="1.0" encoding="utf-8"?>
<!-- Generator: Adobe Illustrator 24.3.0, SVG Export Plug-In . SVG Version: 6.00 Build 0)  -->
<svg version="1.1" id="Calque_1" xmlns="http://www.w3.org/2000/svg" xmlns:xlink="http://www.w3.org/1999/xlink" x="0px" y="0px"
	 viewBox="0 0 479.15 476.63" style="enable-background:new 0 0 479.15 476.63;" xml:space="preserve">
<style type="text/css">
	.st0{fill:#010202;}
	.st1{fill:#FFFFFF;}
</style>
<g id="Groupe_608" transform="translate(-183 -356)">
	<path id="Tracé_188" class="st0" d="M422.59,376.5l25.05-20.47l20.21,25.23l28.79-14.84l14.56,28.89l31.21-8.51l8.23,31.29
		l32.3-1.84l1.55,32.31l31.94,4.92l-5.22,31.94l30.25,11.45l-11.73,30.14l27.2,17.49l-17.74,27.05l22.97,22.77l-22.97,22.76
		l17.74,27.05l-27.2,17.49l11.73,30.14l-30.25,11.45l5.22,31.94l-31.94,4.92l-1.55,32.31l-32.3-1.84l-8.23,31.29l-31.21-8.51
		l-14.56,28.89l-28.76-14.81l-20.21,25.23l-25.05-20.47l-25.05,20.47l-20.21-25.23l-28.76,14.81l-14.55-28.89l-31.21,8.51
		l-8.23-31.29l-32.3,1.84l-1.55-32.31l-31.94-4.92l5.22-31.94l-30.25-11.45l11.73-30.14l-27.31-17.49l17.74-27.05L183,594.32
		l22.97-22.77l-17.74-27.05l27.2-17.49l-11.73-30.14l30.25-11.45l-5.22-31.94l31.94-4.92l1.55-32.31l32.3,1.84l8.23-31.29
		l31.21,8.51l14.55-28.89l28.76,14.81L397.47,356L422.59,376.5z"/>
</g>
<g id="Groupe_607" transform="translate(-3606.87 -1077.463)">
	<path id="Tracé_209" class="st1" d="M3930.84,1387.15l-57.07,0.55c-4.6,0-4.42-1.66-1.84-4.24l44.73-45.28
		c1.29-1.34,1.29-3.45,0-4.79l-13.07-11.41c-1.24-1.27-3.28-1.29-4.55-0.05c-0.02,0.02-0.03,0.03-0.05,0.05
		c0,0-39.7,43.55-59.77,65.35l-37.61,0.37c-4.6,0-4.42-1.66-1.84-4.24l44.73-45.28c1.29-1.33,1.29-3.45,0-4.79l-13.07-11.41
		c-1.24-1.27-3.28-1.29-4.55-0.05c-0.02,0.02-0.03,0.03-0.05,0.05c0,0-41.79,45.84-61.28,67.01c-2.05,1.54-2.74,4.3-1.66,6.62
		c0.93,2.21,4.23,8.1,5.16,9.94c1.23,1.92,3.43,2.99,5.7,2.76h156.11c1.82,0.01,3.3-1.46,3.31-3.29c0-0.01,0-0.02,0-0.03v-14.54
		c0.01-1.82-1.46-3.31-3.28-3.32C3930.88,1387.15,3930.86,1387.15,3930.84,1387.15z"/>
	<path id="Tracé_210" class="st1" d="M3930.84,1279.28h-124.99l17.26-10.48l12.44-7.56l46.94-28.49c1.24-1.03,1.44-2.87,0.44-4.14
		l-7.45-12.27c-0.95-1.57-2.77-2.41-3.97-1.68l-46.94,28.49l-12.45,7.56l-46.94,28.49c-0.75,0.57-1.11,1.52-0.92,2.44
		c-0.14,0.36-0.21,0.75-0.22,1.13v14.34c-0.01,1.82,1.46,3.3,3.29,3.31c0.01,0,0.02,0,0.03,0h163.47c1.82,0.01,3.3-1.46,3.31-3.29
		c0-0.01,0-0.02,0-0.03v-14.34C3934.16,1280.92,3932.71,1279.37,3930.84,1279.28z"/>
</g>
</svg>
