<?xml version="1.0" encoding="utf-8"?>
<!-- Generator: Adobe Illustrator 24.3.0, SVG Export Plug-In . SVG Version: 6.00 Build 0)  -->
<svg version="1.1" id="Calque_1" xmlns="http://www.w3.org/2000/svg" xmlns:xlink="http://www.w3.org/1999/xlink" x="0px" y="0px"
	 viewBox="0 0 596.52 551.93" style="enable-background:new 0 0 596.52 551.93;" xml:space="preserve">
<style type="text/css">
	.st0{fill:#8EBDD0;}
</style>
<g id="Groupe_599" transform="translate(4.977 -11.81)">
	<path id="Tracé_186" class="st0" d="M575.09,530.58H425.82c0.21-73.08-58.86-132.48-131.94-132.69c-15.69-0.04-31.27,2.7-46,8.11
		l-121.7-237.18l14.76-7.57c8.15-4.18,11.37-14.17,7.19-22.32c0,0,0-0.01-0.01-0.01L87.56,20.83c-4.18-8.15-14.17-11.37-22.32-7.19
		c0,0-0.01,0-0.01,0.01L6.27,43.94c-8.15,4.18-11.36,14.17-7.18,22.32c0,0,0,0,0,0.01l60.56,118.1c4.18,8.15,14.17,11.37,22.32,7.19
		c0,0,0.01,0,0.01-0.01l14.76-7.57l121.61,237.09c-36.2,24.69-57.87,65.67-57.89,109.5H11.18c-9.16,0.24-16.39,7.86-16.15,17.02
		c0.23,8.82,7.33,15.92,16.15,16.15h563.91c9.16-0.24,16.39-7.86,16.15-17.02c-0.23-8.82-7.33-15.92-16.15-16.15V530.58z
		 M81.57,154.45L36.21,65.9l29.51-15.14l45.43,88.55L81.57,154.45z M259.97,530.58c0-18.33,14.86-33.18,33.18-33.18
		c18.33,0,33.18,14.86,33.18,33.18l0,0H259.97z M359.49,530.58c-0.02-36.65-29.74-66.35-66.39-66.33
		c-36.63,0.02-66.32,29.7-66.33,66.33h-33.09c0-54.98,44.57-99.54,99.54-99.54s99.54,44.57,99.54,99.54H359.49z"/>
	<path id="Tracé_187" class="st0" d="M476.29,137.32c1.77,5.85,6.62,10.26,12.62,11.46l82.93,16.59H572c1.02,0.2,2.05,0.3,3.09,0.3
		h0.07c1.2-0.01,2.4-0.15,3.57-0.42c0.39-0.09,0.75-0.26,1.12-0.37c0.79-0.22,1.57-0.5,2.32-0.83c0.44-0.2,0.83-0.49,1.25-0.73
		c0.65-0.36,1.27-0.76,1.87-1.2c0.45-0.35,0.83-0.76,1.24-1.12c0.39-0.36,0.77-0.73,1.12-1.12c0.1-0.12,0.17-0.27,0.27-0.39
		s0.2-0.18,0.28-0.29c0.08-0.11,0.21-0.42,0.35-0.62c0.64-0.91,1.19-1.87,1.63-2.89c0.14-0.31,0.28-0.62,0.4-0.94
		c0.47-1.27,0.79-2.6,0.93-3.95c0-0.17,0-0.35,0-0.53c0.07-1.19,0.02-2.39-0.16-3.57c0-0.36-0.11-0.72-0.19-1.12
		c-0.27-1.34-0.7-2.64-1.29-3.87l0,0l0,0l-33.11-66.37c-4.1-8.19-14.07-11.51-22.26-7.41c-1.59,0.8-3.05,1.85-4.31,3.1l-15.75,15.75
		C404.39,24.8,273.4,11.8,153.31,50.92c-8.83,2.43-14.02,11.55-11.59,20.38s11.55,14.02,20.38,11.59c0.5-0.14,0.99-0.3,1.47-0.48
		c108.21-35.2,226.08-24.8,326.45,28.81l-9.57,9.57C476.12,125.11,474.52,131.47,476.29,137.32z"/>
</g>
</svg>
