<?xml version="1.0" encoding="utf-8"?>
<!-- Generator: Adobe Illustrator 24.3.0, SVG Export Plug-In . SVG Version: 6.00 Build 0)  -->
<svg version="1.1" id="Calque_1" xmlns="http://www.w3.org/2000/svg" xmlns:xlink="http://www.w3.org/1999/xlink" x="0px" y="0px"
	 viewBox="0 0 812.35 219.57" style="enable-background:new 0 0 812.35 219.57;" xml:space="preserve">
<style type="text/css">
	.st0{fill:#FFFFFF;}
</style>
<g id="Groupe_603" transform="translate(315.785 51.924)">
	<path id="Tracé_192" class="st0" d="M-242.85,45.11c13.13,0.07,25.64,5.61,34.51,15.29c1.1,1.2,2.96,1.28,4.15,0.19
		c0.06-0.06,0.13-0.12,0.19-0.19l14.88-12.81c1.25-0.96,1.49-2.74,0.53-3.99c-0.1-0.13-0.2-0.25-0.32-0.35
		c-13.76-15.29-33.37-24-53.93-23.97c-40.62,0.36-73.27,33.56-72.94,74.18c-0.39,40.58,32.18,73.79,72.75,74.18
		c0.06,0,0.13,0,0.19,0c20.16,0.06,39.42-8.34,53.1-23.15c1.51-1.86,1.23-4.6-0.64-6.11c-0.13-0.1-0.26-0.2-0.39-0.28
		c-2.07-2.07-11.36-9.92-12.19-10.74c-2.12-1.46-4.99-1.2-6.82,0.62c-8.72,8.86-20.63,13.85-33.06,13.85
		c-26.4-0.34-47.55-21.96-47.32-48.36C-290.39,67.07-269.24,45.45-242.85,45.11z"/>
	<path id="Tracé_193" class="st0" d="M-132.69,46.55h95.88c2.14-0.07,3.86-1.79,3.93-3.93V24.86c-0.09-2.1-1.83-3.74-3.93-3.72
		h-95.88c-2.04-0.01-3.71,1.64-3.72,3.68c0,0.01,0,0.02,0,0.03v17.77C-136.43,44.73-134.79,46.46-132.69,46.55z"/>
	<path id="Tracé_194" class="st0" d="M-36.39,140.57h-71.09c-2.14-0.07-3.86-1.79-3.93-3.93v-22.52c0-3.72,2.51-4.34,4.76-4.34
		h52.69c1.89,0.04,3.47-1.46,3.52-3.35V88.7c-0.07-1.88-1.64-3.35-3.52-3.31h-52.07c-5.37,0-5.37-3.35-5.37-3.93V66.6
		c0-2.05-1.65-3.71-3.7-3.72c-0.01,0-0.02,0-0.03,0h-17.59c-2.04,0-3.7,1.67-3.69,3.71c0,0,0,0.01,0,0.01v95.47
		c0,2.05,1.65,3.71,3.7,3.72c0.01,0,0.01,0,0.02,0h96.31c2.04,0.01,3.71-1.64,3.72-3.68c0-0.01,0-0.02,0-0.03V144.3
		c0.01-2.04-1.63-3.71-3.68-3.73C-36.35,140.57-36.37,140.57-36.39,140.57z"/>
	<path id="Tracé_195" class="st0" d="M206.02,20.93H65.72L85.1,9.16l13.98-8.48l52.68-31.99c1.39-1.16,1.61-3.22,0.49-4.65
		l-8.37-13.78c-1.07-1.77-3.11-2.71-4.46-1.88L86.72-19.64l-13.97,8.48L20.07,20.84c-0.84,0.64-1.24,1.7-1.04,2.73
		c-0.15,0.41-0.24,0.84-0.25,1.28v16.11c-0.01,2.04,1.63,3.71,3.68,3.73c0.01,0,0.03,0,0.04,0H206c2.05,0,3.71-1.65,3.72-3.7
		c0-0.01,0-0.02,0-0.03V24.85C209.74,22.76,208.11,21.03,206.02,20.93z"/>
	<path id="Tracé_196" class="st0" d="M206.02,142.02l-64.06,0.62c-5.17,0-4.96-1.86-2.06-4.76l50.25-50.84
		c1.45-1.5,1.45-3.88,0-5.38l-14.67-12.81c-1.39-1.42-3.68-1.45-5.1-0.05c-0.02,0.02-0.04,0.04-0.05,0.05
		c0,0-44.57,48.88-67.11,73.36l-42.22,0.41c-5.16,0-4.96-1.86-2.06-4.76l50.25-50.84c1.45-1.5,1.45-3.88,0-5.38L94.51,68.86
		c-1.4-1.43-3.69-1.45-5.12-0.05c-0.02,0.02-0.03,0.03-0.05,0.05c0,0-46.9,51.45-68.81,75.21c-2.3,1.73-3.08,4.83-1.86,7.44
		c1.04,2.51,4.76,9.1,5.79,11.16c1.38,2.15,3.86,3.35,6.41,3.1h175.24c2.05,0,3.71-1.65,3.72-3.7c0-0.01,0-0.01,0-0.02v-16.32
		c0.01-2.05-1.65-3.71-3.7-3.72C206.09,142.02,206.06,142.02,206.02,142.02z"/>
	<path id="Tracé_197" class="st0" d="M315.14,20.93h-44.39c-1.93,0.25-3.58,1.51-4.34,3.31L253.4,71.97
		c-0.41,1.7,0.59,3.43,2.27,3.93l19.42,4.75c1.63,0.61,3.44-0.21,4.05-1.84c0.03-0.07,0.05-0.15,0.07-0.23l7.65-27.69
		c0.76-2.36,2.9-4,5.38-4.14h1.44c2.55,0.06,4.78,1.72,5.58,4.14l11.57,42.15c0.62,1.8-0.34,3.76-2.14,4.37
		c-0.44,0.15-0.91,0.21-1.38,0.18h-24.8c-1.82,0.03-3.3,1.49-3.35,3.31v15.91c-0.01,1.71,1.38,3.1,3.09,3.11
		c0.09,0,0.17,0,0.26-0.01h31.2c2.64,0.12,4.93,1.84,5.79,4.34l10.33,38.43c0.74,1.78,2.42,2.98,4.35,3.1h21.08
		c1.28,0.14,2.43-0.78,2.57-2.06c0.03-0.28,0.01-0.56-0.06-0.83L319.75,24.03C318.86,22.26,317.11,21.08,315.14,20.93z"/>
	<path id="Tracé_198" class="st0" d="M495.76,160.82l-23.97-53.52c-0.59-1.46-0.17-3.13,1.03-4.14
		c11.42-8.52,18.16-21.92,18.19-36.16c-0.21-25.65-21.17-46.27-46.81-46.06c-0.03,0-0.06,0-0.09,0h-42.77
		c-2.16,0-3.92,1.75-3.93,3.91c0,0.01,0,0.01,0,0.02v33.27c-0.03,2.83,2.24,5.14,5.07,5.17c0.03,0,0.07,0,0.1,0h13.64
		c2.83,0.03,5.14-2.24,5.17-5.07c0-0.03,0-0.07,0-0.1v-5.17c0.07-2.91,2.47-5.21,5.38-5.17h17.35c10.64-0.2,19.42,8.25,19.63,18.89
		c0,0.11,0,0.21,0,0.32c-0.14,10.64-8.87,19.15-19.51,19.01c-0.04,0-0.08,0-0.12,0h-42.77c-2.16,0-3.92,1.75-3.93,3.91
		c0,0.01,0,0.01,0,0.02v72.08c0.02,2.07,1.71,3.74,3.78,3.72c0.05,0,0.1,0,0.15,0h16.12c2.07,0.1,3.83-1.5,3.92-3.57
		c0-0.05,0-0.1,0-0.15v-45.46c0-3.1,2.07-3.72,5.17-3.72h17.59c4.14,0,4.96,0.41,5.79,2.06c0.83,1.65,21.49,48.36,21.49,48.36
		c1.24,2.51,2.69,2.51,5.37,2.51h16.95C495.96,165.79,497.62,164.55,495.76,160.82z"/>
</g>
</svg>
