<?xml version="1.0" encoding="utf-8"?>
<!-- Generator: Adobe Illustrator 24.3.0, SVG Export Plug-In . SVG Version: 6.00 Build 0)  -->
<svg version="1.1" id="Calque_1" xmlns="http://www.w3.org/2000/svg" xmlns:xlink="http://www.w3.org/1999/xlink" x="0px" y="0px"
	 viewBox="0 0 1680 282" style="enable-background:new 0 0 1680 282;" xml:space="preserve">
<g>
	<path d="M509,0c42.33,0,84.67,0,127,0c-1.2,1.58-2.28,3.27-3.61,4.73C566.82,76.7,501.22,148.65,435.65,220.62
		c-18.6,20.41-37.1,40.92-55.65,61.38c-42.33,0-84.67,0-127,0c1.01-1.46,1.86-3.06,3.04-4.36c37.22-40.87,74.49-81.7,111.72-122.56
		C414.85,103.39,461.92,51.69,509,0z"/>
	<path d="M888,0c-1.58,2.1-2.99,4.35-4.75,6.28C799.52,98.2,715.76,190.1,632,282c-42.33,0-84.67,0-127,0
		c0.77-1.05,1.45-2.19,2.32-3.15C577.5,201.8,647.69,124.78,717.86,47.72C732.3,31.87,746.62,15.91,761,0C803.33,0,845.67,0,888,0z"
		/>
	<path d="M1152,0c-3.48,4.2-6.79,8.54-10.45,12.56C1059.72,102.4,977.86,192.2,896,282c-42.33,0-84.67,0-127,0
		c9.4-10.54,18.71-21.16,28.22-31.6c75.67-83.07,151.37-166.11,227.06-249.17c0.31-0.34,0.48-0.82,0.72-1.24
		C1067.33,0,1109.67,0,1152,0z"/>
	<path d="M1680,0c-1,1.49-1.83,3.13-3.03,4.45c-83.09,91.2-166.2,182.38-249.29,273.58c-1.06,1.17-1.79,2.64-2.68,3.97
		c-42.67,0-85.33,0-128,0c12.22-13.6,24.36-27.28,36.67-40.8c72.64-79.77,145.32-159.5,217.97-239.25c0.53-0.58,0.91-1.29,1.36-1.94
		C1595.33,0,1637.67,0,1680,0z"/>
	<path d="M0,281c8.84-9.44,17.79-18.78,26.51-28.34C102.67,169.17,178.79,85.64,254.92,2.12c0.67-0.73,1.39-1.42,2.08-2.12
		c42,0,84,0,126,0c-0.9,1.51-1.58,3.2-2.73,4.49c-5.75,6.47-11.63,12.83-17.46,19.23C293.49,99.77,224.16,175.8,154.87,251.87
		c-9.06,9.95-17.92,20.08-26.87,30.13c-41.34,0-82.68,0.01-124.02-0.04C2.65,281.96,1.33,281.33,0,281z"/>
	<path d="M1416,0c-0.9,1.36-1.63,2.88-2.71,4.07C1328.88,96.73,1244.44,189.36,1160,282c-42.33,0-84.67,0-127,0
		c9.52-10.66,18.96-21.39,28.58-31.95C1137.27,166.98,1213,83.94,1288.7,0.88c0.19-0.21,0.2-0.58,0.3-0.88
		C1331.33,0,1373.67,0,1416,0z"/>
</g>
</svg>
