<?xml version="1.0" encoding="utf-8"?>
<!-- Generator: Adobe Illustrator 24.3.0, SVG Export Plug-In . SVG Version: 6.00 Build 0)  -->
<svg version="1.1" id="Calque_1" xmlns="http://www.w3.org/2000/svg" xmlns:xlink="http://www.w3.org/1999/xlink" x="0px" y="0px"
	 viewBox="0 0 582.16 543.38" style="enable-background:new 0 0 582.16 543.38;" xml:space="preserve">
<style type="text/css">
	.st0{fill:#8EBDD0;}
</style>
<g id="Groupe_605" transform="translate(-3.523 172.895)">
	<path id="Tracé_199" class="st0" d="M388.41,20.54l5.53-24.3c0.64-2.8-1.11-5.59-3.91-6.23c-1.12-0.26-2.3-0.13-3.34,0.35
		l-22.65,10.4L342.64-12c-2.47-1.47-5.67-0.65-7.13,1.82c-0.58,0.98-0.82,2.12-0.7,3.25l2.89,24.74l-18.75,16.4
		c-2.16,1.9-2.38,5.18-0.48,7.35c0.75,0.86,1.77,1.45,2.89,1.67l24.43,4.92l9.84,22.9c1.13,2.64,4.18,3.87,6.82,2.74
		c1.05-0.45,1.93-1.24,2.49-2.24l12.18-21.74l24.81-2.25c2.86-0.27,4.97-2.8,4.7-5.66c-0.11-1.13-0.58-2.2-1.35-3.04L388.41,20.54z"
		/>
	<path id="Tracé_200" class="st0" d="M574.87-23.84c-2.9-4.5-8.9-5.79-13.4-2.89c0,0-0.01,0-0.01,0.01
		c-2.48,1.57-5.76,0.87-7.38-1.57c-0.76-1.17-1.02-2.6-0.71-3.97c0.3-1.38,1.13-2.59,2.31-3.36c4.49-2.91,5.77-8.92,2.86-13.41
		l-16.78-25.91c-2.91-4.49-8.9-5.78-13.4-2.88c-2.49,1.58-5.79,0.85-7.38-1.64c-1.58-2.49-0.85-5.79,1.64-7.38
		c4.46-2.92,5.73-8.9,2.83-13.38L508.6-126.1c-2.91-4.49-8.89-5.78-13.39-2.89c-2.48,1.59-5.77,0.87-7.36-1.61
		c-0.01-0.01-0.01-0.02-0.02-0.03c-0.76-1.16-1.02-2.58-0.73-3.94c0.29-1.38,1.12-2.59,2.3-3.36c4.49-2.91,5.77-8.91,2.86-13.41
		l-7.03-10.86c-7.02-10.85-21.5-13.96-32.36-6.95c-0.01,0.01-0.02,0.01-0.03,0.02L170.79,13.55c-10.8,7.07-13.87,21.53-6.87,32.37
		l13.56,20.91c-18.34,12.6-33.14,29.69-42.99,49.64L64.57,232.71c-0.14,0.24-0.27,0.48-0.4,0.72c-3.17,6.44-7.83,12.03-13.59,16.32
		L7.43,281.98c-4.3,3.2-5.19,9.29-1.99,13.59c3.2,4.3,9.29,5.19,13.59,1.99l43.14-32.22c0.21-0.16,0.4-0.35,0.61-0.52l12.9,10.21
		c3.5,2.78,8.58,2.19,11.36-1.31c2.78-3.5,2.19-8.58-1.31-11.36l0,0l-11.38-9.02c2.71-3.4,5.07-7.07,7.04-10.95l69.95-116.26
		c0.14-0.24,0.28-0.49,0.41-0.75c8.41-17.18,21.12-31.88,36.9-42.68l1.37-0.93c8.84,13.22,19.96,29.29,25.48,37.24
		c-2,3.87-2.04,8.45-0.11,12.35c2.98,7.03,10.51,10.98,17.99,9.42l0.88-0.27l15.09-4.92c4.1-1.21,7.64-2.46,10.92-3.71
		c4.7-1.86,9.24-4.1,13.57-6.71l46.66-27.88c6.75-3.92,15.4-1.61,19.32,5.14c3.35,5.78,2.2,13.12-2.76,17.59l-96.5,85.13
		l-15.66,14.39c-16.05,14.79-35.76,25.01-57.09,29.62c-4.36,0.96-7.12,5.27-6.16,9.63c0.81,3.69,4.08,6.33,7.86,6.35
		c0.58,0,1.15-0.06,1.71-0.18c24.15-5.22,46.46-16.8,64.63-33.53l15.52-14.27l18.04-15.89c4.59,2.78,10.09,3.66,15.32,2.46
		c2.26,2.9,5.08,5.31,8.29,7.09l-6.14,2.75c-13.45,6.66-18.96,22.95-12.3,36.4c0,0,0,0.01,0,0.01c0.13,0.26,0.29,0.49,0.43,0.75
		l-14.05,14.82c-9.13,10-20.72,17.43-33.62,21.54l-5.69,1.71c-12.28,3-24,7.99-34.67,14.76c-8.34,6.1-15.32,13.87-20.5,22.82
		l-38.48-30.53c-3.59-2.66-8.66-1.91-11.32,1.67c-2.54,3.42-1.99,8.23,1.26,10.99l39.87,31.64c-3.49,5.35-7.16,10.6-10.49,15.19
		c-3,4.44-1.83,10.48,2.61,13.48c4.24,2.86,9.97,1.95,13.11-2.1c4.35-6,9.36-13.01,13.87-20.33l2.12-3.45
		c4.57-9.01,11-16.95,18.86-23.3c9.05-5.66,18.96-9.8,29.34-12.26l5.85-1.75c15.95-5.09,30.32-14.22,41.72-26.49l13.73-14.47
		c3.36,1.34,6.94,2.04,10.55,2.07c4.28,0.01,8.5-0.96,12.34-2.85l27.88-12.5c14.23-6.98,20.1-24.18,13.12-38.41
		c-1.81-3.69-4.4-6.95-7.58-9.56l3.23-1.76c10.33-5.59,16.78-16.38,16.79-28.13c-0.03-5.4-1.39-10.7-3.97-15.44L575.01,19.47
		c10.84-7.06,13.93-21.57,6.9-32.44L574.87-23.84z M335.37,228.62c-0.73,2.25-2.31,4.13-4.39,5.26l-27.88,12.5
		c-3.29,1.61-7.21,1.19-10.08-1.1c-1.04-0.84-2.25-1.45-3.54-1.79c-0.13-0.23-0.31-0.41-0.43-0.65c-1.3-2.62-1.51-5.64-0.57-8.41
		c0.88-2.68,2.76-4.9,5.26-6.21l20.55-9.19c1.87,0.32,3.8,0.07,5.53-0.71l2.46-1.12c4.65-2.32,10.3-0.42,12.62,4.24
		C335.99,223.66,336.17,226.24,335.37,228.62L335.37,228.62z M338.74,184.65l-10.13,5.53c-0.59,0.33-1.14,0.72-1.64,1.16
		c-0.1,0.05-0.2,0-0.3,0.07l-9.45,4.61l-0.37,0.14c-0.34,0.14-0.67,0.28-0.99,0.42l-1.24,0.49v0.11c-0.49,0.3-0.97,0.63-1.42,0.99
		c-0.61-0.05-1.23-0.02-1.84,0.07c-5.16,1.2-10.56-0.55-14.02-4.56c-0.15-0.26-0.32-0.54-0.41-0.72
		c-3.54-7.02-0.72-15.58,6.29-19.12c0.07-0.03,0.13-0.07,0.2-0.1l21.71-10.74c0.32-0.22,0.63-0.45,0.92-0.71
		c0.36-0.01,0.71-0.04,1.07-0.1l5.59-1.64c3.19-0.21,6.36,0.64,9.02,2.41c0.26,1.26,0.76,2.46,1.48,3.53
		c0.24,0.35,0.48,0.74,0.6,0.93c3.37,6.1,1.16,13.78-4.94,17.15c-0.04,0.02-0.09,0.05-0.13,0.07L338.74,184.65z M564.45,3.18
		l-40.87,26.47l-1.21-1.85c-2-2.96-6.02-3.74-8.98-1.74c-2.88,1.95-3.71,5.82-1.87,8.77l1.2,1.85L343.8,146.06
		c-3.18-1.11-6.51-1.69-9.88-1.71l13.82-12.2c12.5-11.16,13.58-30.34,2.43-42.83c-9.61-10.77-25.48-13.27-37.95-5.98l-46.67,27.88
		c-3.59,2.15-7.34,4.01-11.23,5.55c-2.8,1.11-5.93,2.16-9.76,3.28l-7.27,2.44l-4.86-7.51c-0.24-0.34-24.16-34.62-35.53-52.18
		c0-0.05-0.09-0.07-0.12-0.12c-0.18-1.42-0.67-2.79-1.44-3.99l-15.12-23.31c-1.21-1.85-0.69-4.33,1.15-5.56l230.32-149.13l2.33,3.6
		c1.88,3.04,5.87,3.97,8.91,2.08c3.04-1.88,3.97-5.87,2.08-8.91c-0.04-0.07-0.09-0.14-0.14-0.21l-2.32-3.59l40.87-26.47
		c1.86-1.21,4.34-0.68,5.55,1.18c0,0.01,0.01,0.01,0.01,0.02l2.84,4.39c-7.61,11.35-4.57,26.72,6.79,34.33
		c5.27,3.53,11.7,4.9,17.96,3.83l8.41,12.99c-7.66,11.28-4.72,26.64,6.56,34.3c5.31,3.6,11.8,5,18.12,3.9l8.4,12.97
		c-7.62,11.33-4.62,26.69,6.71,34.31c5.29,3.56,11.74,4.94,18.02,3.85l2.84,4.39C566.81-0.53,566.3,1.96,564.45,3.18z"/>
	<path id="Tracé_201" class="st0" d="M466.65-58.28c-1.88-3.04-5.87-3.97-8.91-2.09c-3.04,1.88-3.97,5.87-2.09,8.91
		c0.04,0.07,0.09,0.14,0.14,0.21l13.94,21.51c1.88,3.04,5.87,3.97,8.91,2.09c3.04-1.88,3.97-5.87,2.09-8.91
		c-0.04-0.07-0.09-0.14-0.14-0.21L466.65-58.28z"/>
	<path id="Tracé_202" class="st0" d="M494.5-15.23c-2-2.96-6.02-3.74-8.98-1.74c-2.88,1.95-3.71,5.82-1.87,8.77l13.94,21.51
		c2,2.96,6.02,3.74,8.98,1.74c2.88-1.95,3.71-5.82,1.87-8.77L494.5-15.23z"/>
	<path id="Tracé_203" class="st0" d="M438.77-101.28c-1.93-3.01-5.94-3.87-8.94-1.94c-3.01,1.93-3.87,5.94-1.94,8.94
		c0.01,0.01,0.01,0.02,0.02,0.03l13.94,21.51c1.93,3.01,5.94,3.87,8.94,1.94c3.01-1.93,3.87-5.94,1.94-8.94
		c-0.01-0.01-0.01-0.02-0.02-0.03L438.77-101.28z"/>
	<path id="Tracé_204" class="st0" d="M103.21,276.21c-3.5-2.77-8.59-2.17-11.36,1.33c-2.77,3.5-2.17,8.59,1.33,11.36l0,0l6.62,5.26
		c3.64,2.59,8.68,1.74,11.27-1.9c2.4-3.37,1.87-8-1.22-10.74L103.21,276.21z"/>
</g>
</svg>
